<svg viewBox="0 0 48 48" xmlns="http://www.w3.org/2000/svg" xml:space="preserve" fill-rule="evenodd" clip-rule="evenodd" stroke-linejoin="round" stroke-miterlimit="2"><path d="M52.8 56.2 32.6 36a16.9 16.9 0 0 1-5.3 3.1 19 19 0 0 1-6.5 1.1 19 19 0 0 1-14-5.7A19 19 0 0 1 1 20.6c0-5.4 1.9-10 5.7-13.9a19 19 0 0 1 14-5.7c5.4 0 10 1.9 13.8 5.7a19 19 0 0 1 5.7 14 19 19 0 0 1-4.3 12l20.3 20.1-3.4 3.4ZM20.7 35.6c4.1 0 7.7-1.4 10.6-4.4 2.9-3 4.3-6.5 4.3-10.6s-1.4-7.7-4.3-10.6c-3-3-6.5-4.4-10.6-4.4C16.5 5.6 12.9 7 10 10c-3 3-4.4 6.5-4.4 10.6S7 28.3 10 31.2c3 3 6.5 4.4 10.7 4.4Z" fill="none" stroke="#fff" stroke-width="10"/><circle cx="19.8" cy="19.9" r="15.5" fill="#fff" transform="translate(-.8 -.8) scale(1.07826)"/><path d="M52.8 56.2 32.6 36a16.9 16.9 0 0 1-5.3 3.1 19 19 0 0 1-6.5 1.1 19 19 0 0 1-14-5.7A19 19 0 0 1 1 20.6c0-5.4 1.9-10 5.7-13.9a19 19 0 0 1 14-5.7c5.4 0 10 1.9 13.8 5.7a19 19 0 0 1 5.7 14 19 19 0 0 1-4.3 12l20.3 20.1-3.4 3.4ZM20.7 35.6c4.1 0 7.7-1.4 10.6-4.4 2.9-3 4.3-6.5 4.3-10.6s-1.4-7.7-4.3-10.6c-3-3-6.5-4.4-10.6-4.4C16.5 5.6 12.9 7 10 10c-3 3-4.4 6.5-4.4 10.6S7 28.3 10 31.2c3 3 6.5 4.4 10.7 4.4Z" fill-rule="nonzero"/><path d="M20.3 30.6c1.8 0 3.3-.6 4.6-1.8 1.3-1.2 2-2.6 2-4.3v-5.9c0-1.7-.7-3-2-4.3a6.5 6.5 0 0 0-4.6-1.7c-1.8 0-3.3.6-4.6 1.7a5.7 5.7 0 0 0-1.9 4.3v5.9c0 1.7.6 3.1 2 4.3a6.5 6.5 0 0 0 4.5 1.8Z" fill="#57cc33" fill-rule="nonzero"/><path d="M20.3 32a8 8 0 0 1-4-1 6.4 6.4 0 0 1-2.7-3H9.7v-2h3l-.2-1.7v-1.7H9.7v-2h2.8a106.5 106.5 0 0 1 .3-3.8h-3v-2h3.9c.3-.6.7-1.1 1.2-1.6s1-.9 1.7-1.2L14 9.5l1.4-1.3 3 3.1a5.5 5.5 0 0 1 3.8 0l3.1-3.1 1.4 1.3-2.5 2.5a8 8 0 0 1 2.9 2.8h3.8v2h-3.1c.2.6.3 1.3.3 1.9v1.9h2.8v2h-2.8v1.7c0 .6 0 1.2-.2 1.8h3v2h-3.8a6 6 0 0 1-2.7 3c-1.3.6-2.6 1-4 1Zm0-2c1.6 0 3-.5 4-1.6a5.5 5.5 0 0 0 1.8-4v-5.6c0-1.6-.6-3-1.7-4a5.6 5.6 0 0 0-4-1.7c-1.7 0-3 .5-4.2 1.6a5.5 5.5 0 0 0-1.7 4.1v5.5c0 1.6.6 3 1.7 4a5.6 5.6 0 0 0 4.1 1.8Zm-2.6-4.6H23v-2h-5.3v2Zm0-5.7H23v-2h-5.3v2Zm2.6 1.9Z" fill-rule="nonzero"/></svg>
